HIERARCHY
ROOT hips
{
  OFFSET 0 10.6860622 2.3727825e-15
  CHANNELS 6 Xposition Yposition Zposition Yrotation Xrotation Zrotation
  JOINT leftUpperLeg
  {
    OFFSET 0.6642549969 -0.9402397400000004 0
    CHANNELS 3 Yrotation Xrotation Zrotation
    JOINT leftLowerLeg
    {
      OFFSET 0 -3.997221335632195 0
      CHANNELS 3 Yrotation Xrotation Zrotation
      JOINT leftFoot
      {
        OFFSET -0.13777839790000004 -4.6145792000000005 -0.22186036399999998
        CHANNELS 3 Yrotation Xrotation Zrotation
        JOINT leftToes
        {
          OFFSET -0.03777410834999995 -0.9130806927000008 0.85230013
          CHANNELS 3 Yrotation Xrotation Zrotation
          End Site
          {
            OFFSET -0.03777410834999995 -0.9130806927000008 0.85230013
          }
        }
      }
    }
  }
  JOINT rightUpperLeg
  {
    OFFSET -0.6642778626 -0.9402397400000004 0
    CHANNELS 3 Yrotation Xrotation Zrotation
    JOINT rightLowerLeg
    {
      OFFSET 0 -3.997221452859387 0
      CHANNELS 3 Yrotation Xrotation Zrotation
      JOINT rightFoot
      {
        OFFSET 0.1377926176 -4.6145792000000005 -0.22185782299999995
        CHANNELS 3 Yrotation Xrotation Zrotation
        JOINT rightToes
        {
          OFFSET 0.037780746850000047 -0.9130806927000008 0.85230167
          CHANNELS 3 Yrotation Xrotation Zrotation
          End Site
          {
            OFFSET 0.037780746850000047 -0.9130806927000008 0.85230167
          }
        }
      }
    }
  }
  JOINT spine
  {
    OFFSET 0 0.13988381660000015 0
    CHANNELS 3 Yrotation Xrotation Zrotation
    JOINT chest
    {
      OFFSET 0 0.6191039003973773 0
      CHANNELS 3 Yrotation Xrotation Zrotation
      JOINT upperChest
      {
        OFFSET 0 0.9855186130586943 0
        CHANNELS 3 Yrotation Xrotation Zrotation
        JOINT leftShoulder
        {
          OFFSET 0.1807663869 1.5087829790000005 0
          CHANNELS 3 Yrotation Xrotation Zrotation
          JOINT leftUpperArm
          {
            OFFSET 0.5985063006419806 0 0
            CHANNELS 3 Yrotation Xrotation Zrotation
            JOINT leftLowerArm
            {
              OFFSET 2.2993332369501065 0 0
              CHANNELS 3 Yrotation Xrotation Zrotation
              JOINT leftHand
              {
                OFFSET 2.395047042602395 0 0
                CHANNELS 3 Yrotation Xrotation Zrotation
                JOINT leftIndexProximal
                {
                  OFFSET 0.5766295810000004 0.04556643899499946 0.17265095988184
                  CHANNELS 3 Yrotation Xrotation Zrotation
                  JOINT leftIndexIntermediate
                  {
                    OFFSET 0.2957229000000008 -0.019352197700001517 -0.007932640616999987
                    CHANNELS 3 Yrotation Xrotation Zrotation
                    JOINT leftIndexDistal
                    {
                      OFFSET 0.19008243099999922 -0.012484908149998475 -0.002786250786000012
                      CHANNELS 3 Yrotation Xrotation Zrotation
                      End Site
                      {
                        OFFSET 0.19008243099999922 -0.012484908149998475 -0.002786250786000012
                      }
                    }
                  }
                }
                JOINT leftMiddleProximal
                {
                  OFFSET 0.5834975091000001 0.0524350405149987 0.02204081888183999
                  CHANNELS 3 Yrotation Xrotation Zrotation
                  JOINT leftMiddleIntermediate
                  {
                    OFFSET 0.33880573540000003 -0.019871473270000717 -0.00000971183179999946
                    CHANNELS 3 Yrotation Xrotation Zrotation
                    JOINT leftMiddleDistal
                    {
                      OFFSET 0.20676022730000088 -0.012221336379999448 0.0001471936708000235
                      CHANNELS 3 Yrotation Xrotation Zrotation
                      End Site
                      {
                        OFFSET 0.20676022730000088 -0.012221336379999448 0.0001471936708000235
                      }
                    }
                  }
                }
                JOINT leftLittleProximal
                {
                  OFFSET 0.5344154683999995 -0.012880921405001189 -0.24414037221816004
                  CHANNELS 3 Yrotation Xrotation Zrotation
                  JOINT leftLittleIntermediate
                  {
                    OFFSET 0.21758961730000093 -0.011650919939999227 0.011893592810000034
                    CHANNELS 3 Yrotation Xrotation Zrotation
                    JOINT leftLittleDistal
                    {
                      OFFSET 0.1475273964999999 -0.008152365682999818 0.006001092492999946
                      CHANNELS 3 Yrotation Xrotation Zrotation
                      End Site
                      {
                        OFFSET 0.1475273964999999 -0.008152365682999818 0.006001092492999946
                      }
                    }
                  }
                }
                JOINT leftRingProximal
                {
                  OFFSET 0.5799399463000003 0.026911854694997794 -0.12150566991816003
                  CHANNELS 3 Yrotation Xrotation Zrotation
                  JOINT leftRingIntermediate
                  {
                    OFFSET 0.26167887460000006 -0.013480186499999602 0.010996293000000053
                    CHANNELS 3 Yrotation Xrotation Zrotation
                    JOINT leftRingDistal
                    {
                      OFFSET 0.17667108799999987 -0.008990287899999228 0.0055541023999999065
                      CHANNELS 3 Yrotation Xrotation Zrotation
                      End Site
                      {
                        OFFSET 0.17667108799999987 -0.008990287899999228 0.0055541023999999065
                      }
                    }
                  }
                }
                JOINT leftThumbProximal
                {
                  OFFSET 0.11018806699999972 -0.09448718900500053 0.17047963138184
                  CHANNELS 3 Yrotation Xrotation Zrotation
                  JOINT leftThumbIntermediate
                  {
                    OFFSET 0.31062601459999983 -0.08126270900000132 0.15443142000000007
                    CHANNELS 3 Yrotation Xrotation Zrotation
                    JOINT leftThumbDistal
                    {
                      OFFSET 0.21627175790000086 -0.08833193599999878 0.018771167799999988
                      CHANNELS 3 Yrotation Xrotation Zrotation
                      End Site
                      {
                        OFFSET 0.21627175790000086 -0.08833193599999878 0.018771167799999988
                      }
                    }
                  }
                }
              }
            }
          }
        }
        JOINT neck
        {
          OFFSET 0 1.5463305265074576 0
          CHANNELS 3 Yrotation Xrotation Zrotation
          JOINT head
          {
            OFFSET 0 0.8456443600000344 0
            CHANNELS 3 Yrotation Xrotation Zrotation
            JOINT leftEye
            {
              OFFSET 0.30408573140000006 0.5104519199999995 0.1276382305
              CHANNELS 3 Yrotation Xrotation Zrotation
              End Site
              {
                OFFSET 0.30408573140000006 0.5104519199999995 0.1276382305
              }
            }
            JOINT rightEye
            {
              OFFSET -0.30409491089999996 0.5104519199999995 0.1276379445
              CHANNELS 3 Yrotation Xrotation Zrotation
              End Site
              {
                OFFSET -0.30409491089999996 0.5104519199999995 0.1276379445
              }
            }
            JOINT jaw
            {
              OFFSET -3.155239131000001e-7 -0.11984121820000082 0.60178107
              CHANNELS 3 Yrotation Xrotation Zrotation
              End Site
              {
                OFFSET -3.155239131000001e-7 -0.11984121820000082 0.60178107
              }
            }
          }
        }
        JOINT rightShoulder
        {
          OFFSET -0.1807303465 1.5087829790000005 0
          CHANNELS 3 Yrotation Xrotation Zrotation
          JOINT rightUpperArm
          {
            OFFSET -0.5985063796536958 0 0
            CHANNELS 3 Yrotation Xrotation Zrotation
            JOINT rightLowerArm
            {
              OFFSET -2.2993322059002854 0 0
              CHANNELS 3 Yrotation Xrotation Zrotation
              JOINT rightHand
              {
                OFFSET -2.395045314457259 0 0
                CHANNELS 3 Yrotation Xrotation Zrotation
                JOINT rightIndexProximal
                {
                  OFFSET -0.5764487688300002 0.0441371204405987 0.17361932004999997
                  CHANNELS 3 Yrotation Xrotation Zrotation
                  JOINT rightIndexIntermediate
                  {
                    OFFSET -0.29573011380000047 -0.01934826376999843 -0.007698921482999974
                    CHANNELS 3 Yrotation Xrotation Zrotation
                    JOINT rightIndexDistal
                    {
                      OFFSET -0.19008373999999884 -0.012503266380000655 -0.0026365778999999897
                      CHANNELS 3 Yrotation Xrotation Zrotation
                      End Site
                      {
                        OFFSET -0.19008373999999884 -0.012503266380000655 -0.0026365778999999897
                      }
                    }
                  }
                }
                JOINT rightMiddleProximal
                {
                  OFFSET -0.5834852037300005 0.05211639405060153 0.02307162440000001
                  CHANNELS 3 Yrotation Xrotation Zrotation
                  JOINT rightMiddleIntermediate
                  {
                    OFFSET -0.33880114510000003 -0.019952774050000954 0.0002455003561999819
                    CHANNELS 3 Yrotation Xrotation Zrotation
                    JOINT rightMiddleDistal
                    {
                      OFFSET -0.20675694929999955 -0.012273788999999091 0.00030209124000002766
                      CHANNELS 3 Yrotation Xrotation Zrotation
                      End Site
                      {
                        OFFSET -0.20675694929999955 -0.012273788999999091 0.00030209124000002766
                      }
                    }
                  }
                }
                JOINT rightLittleProximal
                {
                  OFFSET -0.5346811737299992 -0.011214256288399227 -0.24363941305000003
                  CHANNELS 3 Yrotation Xrotation Zrotation
                  JOINT rightLittleIntermediate
                  {
                    OFFSET -0.21757715980000092 -0.011771559690000988 0.01201554387
                    CHANNELS 3 Yrotation Xrotation Zrotation
                    JOINT rightLittleDistal
                    {
                      OFFSET -0.1475201849000004 -0.00822055339600003 0.006082065407000015
                      CHANNELS 3 Yrotation Xrotation Zrotation
                      End Site
                      {
                        OFFSET -0.1475201849000004 -0.00822055339600003 0.006082065407000015
                      }
                    }
                  }
                }
                JOINT rightRingProximal
                {
                  OFFSET -0.5800810755299999 0.027657985680600072 -0.12066365025000003
                  CHANNELS 3 Yrotation Xrotation Zrotation
                  JOINT rightRingIntermediate
                  {
                    OFFSET -0.26166445029999974 -0.013623118409999302 0.011164098990000045
                    CHANNELS 3 Yrotation Xrotation Zrotation
                    JOINT rightRingDistal
                    {
                      OFFSET -0.17666387530000027 -0.009072900100000503 0.005668185599999959
                      CHANNELS 3 Yrotation Xrotation Zrotation
                      End Site
                      {
                        OFFSET -0.17666387530000027 -0.009072900100000503 0.005668185599999959
                      }
                    }
                  }
                }
                JOINT rightThumbProximal
                {
                  OFFSET -0.10997596379000074 -0.09577489355940072 0.16989765924999997
                  CHANNELS 3 Yrotation Xrotation Zrotation
                  JOINT rightThumbIntermediate
                  {
                    OFFSET -0.31036620999999986 -0.08229339117999834 0.15440884469999996
                    CHANNELS 3 Yrotation Xrotation Zrotation
                    JOINT rightThumbDistal
                    {
                      OFFSET -0.21631306399999906 -0.08825326400000111 0.018656797720000014
                      CHANNELS 3 Yrotation Xrotation Zrotation
                      End Site
                      {
                        OFFSET -0.21631306399999906 -0.08825326400000111 0.018656797720000014
                      }
                    }
                  }
                }
              }
            }
          }
        }
      }
    }
  }
}
MOTION
Frames: 7
Frame Time: 0.03333333333333333
0 11.682712981546562 0 0 0 0 0 0 -5.826343164929014 -0.3712483961610101 -3.6333298826370974 5.838118207697276 0 0 0 0 0 0 0 0 5.826343164929014 0.3712483961610101 -3.6333298826370974 -5.838118207697276 0 0 0 0 0 0 0 -4.610651315171937 0 0 3.0831277533083026 0 0 0 0 0 1.5275236235667615 0 0 0 0 0 0 0 0 0 0 0 0 0 0 0 0 0 0 0 0 0 0 0 0 0 0 0 0 0 0 0 0 0 0 0 0 0 0 0 0 0 0 0 0 0 0 0 0 0 0 0 0 0 0 0 0 1.5275236235667615 0 0 0 0 0 0 0 0 0 0 0 0 0 0 1.5275236235667615 0 0 0 0 0 0 0 0 0 0 0 0 0 0 0 0 0 0 0 0 0 0 0 0 0 0 0 0 0 0 0 0 0 0 0 0 0 0 0 0 0 0 0 0 0 0 0 0 0 0 0 0 0 0 0
0 -20.27139985947667 3.488339440066659 0 -31.002780863131715 0 -138.0654088975963 -62.40238936445635 135.72297034418688 176.64328266869373 29.912609067122197 176.03392537269622 -22.147479324090355 -14.450994427492432 -13.382881673378357 0 0 0 135.52218811897868 -63.502571089735056 -133.15137707208916 -176.6315569764142 29.91021951818332 -176.0421824143012 22.230400649380723 -15.797549238252426 13.107929673906874 0 0 0 -1.0372224332404583 44.85495418861183 -1.614950780383925 -0.4407002358134458 41.96813056103273 -0.8705470973674089 0 0 0 -3.4376148059461165 -8.64313337825416 -8.017376932176688 -52.96854570694442 -78.96059949932352 -23.411467943571857 -94.45535656285334 34.53778524584241 -73.90376068824874 -6.03796757412778 -30.761299938437737 -67.44984279220904 0 0 0 0 0 0 0 0 0 0 0 0 0 0 0 0 0 0 0 0 0 0 0 0 0 0 0 0 0 0 0 0 0 0 0 0 0 0 0 0 0 0 0 0 0 45.621324605847306 -11.002920715584702 -30.725141032150315 18.899786167416195 -17.641699800698753 6.370596657731256 0 0 0 0 0 0 0 0 0 3.7053596712170993 -8.654994848336933 8.00096531061782 52.905655556074954 -78.93131730328247 23.375521494957056 94.37921856870419 34.60260485333723 73.82812394704959 6.09127459679334 -30.725224485701208 67.41896818551017 0 0 0 0 0 0 0 0 0 0 0 0 0 0 0 0 0 0 0 0 0 0 0 0 0 0 0 0 0 0 0 0 0 0 0 0 0 0 0 0 0 0 0 0 0
0 -20.27139985947667 3.488339440066659 0 -31.002780863131715 0 -138.10824018675808 -62.38074594562287 135.6665416783384 176.64328291451793 29.912609067122197 176.03392586401011 -22.082917064237364 -14.452084172262477 -13.474934519853187 0 0 0 135.52219348194387 -63.502571089735056 -133.1513828309947 -176.63155794535234 29.910211638479513 -176.04218342319822 22.2304022920502 -15.797549238252426 13.107930538075042 0 0 0 -1.0372224332404583 44.85495418861183 -1.614950780383925 -0.4407002358134458 41.96813056103273 -0.8705470973674089 0 0 0 -3.6042661239538667 -8.694879249094035 -7.886211421148135 -52.862319311729905 -78.95476901294442 -23.380027826664058 -94.45536360143802 34.53778524584241 -73.9037636756879 -6.03796757412778 -30.761299938437737 -67.44984279220904 0 0 0 0 0 0 0 0 0 0 0 0 0 0 0 0 0 0 0 0 0 0 0 0 0 0 0 0 0 0 0 0 0 0 0 0 0 0 0 0 0 0 0 0 0 45.329568433820256 -11.002865920578344 -30.559979552043686 18.820367392878747 -17.94354172267176 6.311785202528404 0 0 0 0 0 0 0 0 0 3.8805758919111364 -8.708604554176645 7.866829050190244 52.794535476946926 -78.92416869129877 23.348428042178647 94.37921856870419 34.60260485333723 73.82812394704959 6.09127459679334 -30.725224485701208 67.41896818551017 0 0 0 0 0 0 0 0 0 0 0 0 0 0 0 0 0 0 0 0 0 0 0 0 0 0 0 0 0 0 0 0 0 0 0 0 0 0 0 0 0 0 0 0 0
0 -20.27139985947667 3.488339440066659 0 -31.002780863131715 0 -138.15108942864214 -62.359110780295055 135.61012006260825 176.64328291451793 29.912609067122197 176.03392635532398 -22.018352135793297 -14.45307341121803 -13.566988729413094 0 0 0 135.5221987955786 -63.502563435279065 -133.151388415297 -176.63155914578232 29.910205728702067 -176.04218443209507 22.230403934719643 -15.797549238252426 13.107931402243205 0 0 0 -1.0372224332404583 44.85495418861183 -1.614950780383925 -0.4407002358134458 41.96813056103273 -0.8705470973674089 0 0 0 -3.7710598908220514 -8.74624700459931 -7.754874706938641 -52.75612762299115 -78.94894156452163 -23.348550256168547 -94.45536980131277 34.53778524584241 -73.90376566731406 -6.03796757412778 -30.761299938437737 -67.44984279220904 0 0 0 0 0 0 0 0 0 0 0 0 0 0 0 0 0 0 0 0 0 0 0 0 0 0 0 0 0 0 0 0 0 0 0 0 0 0 0 0 0 0 0 0 0 45.037813444000186 -11.001984853065629 -30.394818769010385 18.741136800692207 -18.245460770649885 6.253313575478915 0 0 0 0 0 0 0 0 0 4.055943874766938 -8.761808157869948 7.732508815829143 52.68346352358586 -78.91704239833537 23.32127967618258 94.37921856870419 34.60260485333723 73.82812394704959 6.091274103001889 -30.725228458462627 67.41896818551017 0 0 0 0 0 0 0 0 0 0 0 0 0 0 0 0 0 0 0 0 0 0 0 0 0 0 0 0 0 0 0 0 0 0 0 0 0 0 0 0 0 0 0 0 0
0 -20.27139985947667 3.488339440066659 0 -31.002780863131715 0 -138.23683417814192 -62.315909230538686 135.49728428556696 176.64328291451793 29.912609067122197 176.03392635532398 -21.8892080764943 -14.454746839723033 -13.751111132306383 0 0 0 135.52218811897868 -63.502571089735056 -133.15137707208916 -176.6315569764142 29.91021951818332 -176.0421824143012 22.230400649380723 -15.797549238252426 13.107929673906874 0 0 0 -1.0372224332404583 44.85495418861183 -1.614950780383925 -0.4407002358134458 41.96813056103273 -0.8705470973674089 0 0 0 -4.105116667447993 -8.847860670811105 -7.49166125589882 -52.543873447300776 -78.9372779645749 -23.285416456595918 -94.45536172941539 34.53778524584241 -73.90376068824874 -6.037961569840594 -30.761303912687207 -67.44985196819685 0 0 0 0 0 0 0 0 0 0 0 0 0 0 0 0 0 0 0 0 0 0 0 0 0 0 0 0 0 0 0 0 0 0 0 0 0 0 0 0 0 0 0 0 0 44.45361736748294 -10.997746546350305 -30.0641224697237 18.583023222390075 -18.8503251426591 6.137231783589675 0 0 0 0 0 0 0 0 0 4.407183060755231 -8.867003458902312 7.463278383088342 52.46148014067951 -78.90282111290183 23.266792004169634 94.37921856870419 34.60260485333723 73.82812394704959 6.091273115418982 -30.725224485701208 67.41896818551017 0 0 0 0 0 0 0 0 0 0 0 0 0 0 0 0 0 0 0 0 0 0 0 0 0 0 0 0 0 0 0 0 0 0 0 0 0 0 0 0 0 0 0 0 0
0 -20.27139985947667 3.488339440066659 0 -31.002780863131715 0 -138.27973200924347 -62.29433539577905 135.44087747527874 176.64328291451793 29.912609067122197 176.03392586401011 -21.824627325064462 -14.45543102697632 -13.843174431002938 0 0 0 135.52218811897868 -63.502571089735056 -133.15137707208916 -176.63155794535234 29.910211638479513 -176.04218293189123 22.230400649380723 -15.797549238252426 13.107929673906874 0 0 0 -1.0372223460344077 44.85495418861183 -1.614950780383925 -0.4407002358134458 41.96813056103273 -0.8705470973674089 0 0 0 -4.272374466807452 -8.8981046251186 -7.35978656191751 -52.43784279673535 -78.93142403351617 -23.253726840015293 -94.45534674638527 34.53778524584241 -73.90375356394678 -6.037966016067993 -30.761303912687207 -67.44984646260403 0 0 0 0 0 0 0 0 0 0 0 0 0 0 0 0 0 0 0 0 0 0 0 0 0 0 0 0 0 0 0 0 0 0 0 0 0 0 0 0 0 0 0 0 0 44.16121028364626 -10.994378905900334 -29.898616532433977 18.504140671501222 -19.153247645824077 6.079623630389816 0 0 0 0 0 0 0 0 0 4.583048649447373 -8.9189974924703 7.328373982464761 52.35055282504131 -78.89570834865641 23.239474083454724 94.37921805159196 34.60260485333723 73.82812279146826 6.091273115418982 -30.725224485701208 67.41896818551017 0 0 0 0 0 0 0 0 0 0 0 0 0 0 0 0 0 0 0 0 0 0 0 0 0 0 0 0 0 0 0 0 0 0 0 0 0 0 0 0 0 0 0 0 0
0 -20.27139985947667 3.488339440066659 0 -31.002780863131715 0 -138.32264324218224 -62.27277701881584 135.38447956942784 176.64328266869373 29.912609067122197 176.03392537269622 -21.76004687867529 -14.456015585537713 -13.935239551585823 0 0 0 135.52218811897868 -63.502571089735056 -133.15137707208916 -176.63155914578232 29.910205728702067 -176.0421834494812 22.230400649380723 -15.797547463678855 13.107930538075042 0 0 0 -1.0372223460344077 44.85495418861183 -1.6149506446150526 -0.4407002358134458 41.96813056103273 -0.8705470973674089 0 0 0 -4.439772176190239 -8.947966546857865 -7.227745737425239 -52.33185103194568 -78.92559093745962 -23.22199792631638 -94.45533176335458 34.53778524584241 -73.90374659325573 -6.037970044253894 -30.761299938437737 -67.44984095701162 0 0 0 0 0 0 0 0 0 0 0 0 0 0 0 0 0 0 0 0 0 0 0 0 0 0 0 0 0 0 0 0 0 0 0 0 0 0 0 0 0 0 0 0 0 43.8688182705545 -10.990183325005074 -29.73313165352702 18.42543495873918 -19.456245717401515 6.022350989132478 0 0 0 0 0 0 0 0 0 4.759062843364155 -8.970582316818106 7.193289571722692 52.23968121460936 -78.88861780117553 23.21210109602806 94.37921733417504 34.60260900234815 73.8281217952591 6.09127459679334 -30.725224485701208 67.41896818551017 0 0 0 0 0 0 0 0 0 0 0 0 0 0 0 0 0 0 0 0 0 0 0 0 0 0 0 0 0 0 0 0 0 0 0 0 0 0 0 0 0 0 0 0 0
